PathFileType	4	(X/Y/Z)	C:\Users\Graham\Documents\MATLAB\MOtoNMS_v2_2\MyData\ElaboratedData\S4\17-05-18\staticElaborations\Static1\Static1\\Static1.trc
DataRate	CameraRate	NumFrames	NumMarkers	Units	OrigDataRate	DataStartFrame
100	100	6	38	mm	100	2
Frame#	Time	V_Sacral			R_ASIS			L_ASIS			R_Knee_Lat			R_Knee_Med			R_Thigh_Upper			R_Thigh_Front			R_Thigh_Rear			L_Knee_Lat			L_Knee_Med			L_Thigh_Upper			L_Thigh_Front			L_Thigh_Rear			R_Ankle_Lat			R_Ankle_Med			R_Shank_Upper			R_Shank_Front			R_Shank_Rear			L_Ankle_Lat			L_Ankle_Med			L_Shank_Upper			L_Shank_Front			L_Shank_Rear			R_Heel			R_MTP1			R_MTP5			L_Heel			L_MTP1			L_MTP5			Clavicle			R_Acromium			L_Acromium			LAJC			RAJC			LHJC			RHJC			LKJC			RKJC		
		X1	Y1	Z1	X2	Y2	Z2	X3	Y3	Z3	X4	Y4	Z4	X5	Y5	Z5	X6	Y6	Z6	X7	Y7	Z7	X8	Y8	Z8	X9	Y9	Z9	X10	Y10	Z10	X11	Y11	Z11	X12	Y12	Z12	X13	Y13	Z13	X14	Y14	Z14	X15	Y15	Z15	X16	Y16	Z16	X17	Y17	Z17	X18	Y18	Z18	X19	Y19	Z19	X20	Y20	Z20	X21	Y21	Z21	X22	Y22	Z22	X23	Y23	Z23	X24	Y24	Z24	X25	Y25	Z25	X26	Y26	Z26	X27	Y27	Z27	X28	Y28	Z28	X29	Y29	Z29	X30	Y30	Z30	X31	Y31	Z31	X32	Y32	Z32	X33	Y33	Z33	X34	Y34	Z34	X35	Y35	Z35	X36	Y36	Z36	X37	Y37	Z37	X38	Y38	Z38	

88	0.870000	-141.073861	1011.745278	19.895341	60.077132	982.794721	150.948366	78.325847	976.438287	-83.753087	-48.604540	505.676917	204.731871	-43.827898	495.304118	96.331478	85.480572	738.262592	141.551558	35.764010	632.478822	91.295817	37.281063	624.537696	175.747188	-60.112678	512.664015	-158.416017	-75.366293	486.302753	-39.439668	88.966875	757.228391	-70.009676	39.541438	644.485098	-32.942261	52.816314	639.754643	-109.143182	-155.377987	103.554003	223.341857	-132.551742	119.348263	130.788008	-31.456296	328.286981	190.127850	-88.727617	224.120698	144.803542	-89.575180	225.696146	226.222824	-146.866006	96.984944	-152.616825	-125.162960	120.533655	-61.046171	-42.000620	367.263099	-125.231901	-81.259682	252.364241	-85.253025	-76.550907	254.965477	-166.176050	-226.025087	57.593074	179.836505	4.975178	64.489595	165.569336	-8.969702	58.377163	238.469026	-220.236408	55.264945	-104.906191	8.597724	60.805281	-83.091455	-15.744104	55.452478	-171.412661	10.977482	1393.958595	16.617290	-76.902535	1445.354958	206.942968	-74.160593	1440.108124	-176.719766	-136.014483	108.759300	-106.831498	-143.964865	111.451133	177.064932	3.233225	905.906880	-54.836526	-9.942290	910.496206	114.617196	-67.739486	499.483384	-98.927842	-46.216219	500.490518	150.531675	
89	0.880000	-140.977415	1011.734099	19.902286	60.222848	982.781205	150.910280	78.405840	976.441843	-83.804531	-48.507072	505.667088	204.706959	-43.714801	495.323044	96.325968	85.602403	738.235535	141.502721	35.860495	632.460856	91.256828	37.406215	624.512074	175.697081	-60.069780	512.664128	-158.428269	-75.321504	486.302836	-39.368496	89.036755	757.226520	-70.056941	39.650117	644.500495	-32.983124	52.876815	639.752358	-109.186364	-155.365729	103.564043	223.336344	-132.543257	119.345652	130.781271	-31.397550	328.272678	190.105225	-88.695255	224.091356	144.777091	-89.532513	225.693921	226.209863	-146.860808	96.993305	-152.612960	-125.154606	120.537024	-61.045403	-41.971710	367.263164	-125.244745	-81.238431	252.367385	-85.259686	-76.534986	254.967392	-166.183447	-226.019958	57.600808	179.833401	4.976886	64.477100	165.567745	-8.967663	58.375846	238.465336	-220.234477	55.273510	-104.903531	8.603308	60.799061	-83.085831	-15.743072	55.451092	-171.412900	11.045786	1393.947694	16.631859	-76.813852	1445.326405	206.970101	-74.142883	1440.095073	-176.685254	-136.007707	108.765165	-106.829182	-143.954493	111.454847	177.058807	3.321073	905.903445	-54.870513	-9.806953	910.480432	114.592374	-67.695642	499.483482	-98.898383	-46.110936	500.495066	150.516464	
90	0.890000	-140.880111	1011.724395	19.907364	60.366387	982.767146	150.870954	78.487204	976.444927	-83.856702	-48.410464	505.658257	204.680555	-43.625758	495.323233	96.307052	85.720823	738.205387	141.453031	35.955491	632.443367	91.215437	37.524246	624.484987	175.647543	-60.026591	512.663364	-158.441027	-75.280948	486.302936	-39.289738	89.107212	757.222845	-70.103519	39.751197	644.509493	-33.023730	52.937922	639.748916	-109.228197	-155.355240	103.573844	223.330310	-132.533644	119.343003	130.774296	-31.340674	328.259200	190.082349	-88.646308	224.018530	144.724448	-89.491407	225.691850	226.196806	-146.855420	97.000969	-152.609792	-125.146743	120.540397	-61.044957	-41.943555	367.262880	-125.257876	-81.217924	252.369939	-85.266822	-76.519266	254.968724	-166.191043	-226.013615	57.607866	179.830752	4.978710	64.464721	165.566518	-8.965335	58.375198	238.462076	-220.232713	55.281928	-104.900517	8.608129	60.791921	-83.077377	-15.742010	55.449440	-171.413042	11.114528	1393.936387	16.641355	-76.723864	1445.296607	206.992982	-74.128002	1440.082287	-176.653696	-136.001081	108.770683	-106.827375	-143.944442	111.458423	177.052303	3.409383	905.900272	-54.906485	-9.673718	910.464868	114.565209	-67.653770	499.483150	-98.865383	-46.018111	500.490745	150.493804	
91	0.900000	-140.781582	1011.716225	19.911109	60.507584	982.752687	150.831141	78.569571	976.447602	-83.909233	-48.314156	505.650276	204.653097	-43.566582	495.298731	96.271672	85.837260	738.173133	141.402795	36.050355	632.426476	91.172312	37.635589	624.456793	175.599302	-59.982968	512.661738	-158.454178	-75.243627	486.303099	-39.208422	89.178474	757.217274	-70.149374	39.842119	644.510185	-33.063877	52.999653	639.744331	-109.268613	-155.346444	103.583583	223.323868	-132.523206	119.340386	130.767314	-31.285238	328.246310	190.059404	-88.589029	223.923592	144.659228	-89.451675	225.689894	226.183853	-146.849872	97.007820	-152.607354	-125.139560	120.543810	-61.044839	-41.916008	367.262115	-125.271143	-81.198144	252.372032	-85.274162	-76.503679	254.969395	-166.198674	-226.006323	57.614546	179.828539	4.980668	64.452277	165.565824	-8.962572	58.375036	238.459192	-220.230992	55.289933	-104.897221	8.611977	60.784410	-83.067234	-15.740963	55.447570	-171.413092	11.183529	1393.924893	16.645772	-76.631582	1445.265658	207.012306	-74.116009	1440.070628	-176.625106	-135.994716	108.775815	-106.826097	-143.934825	111.461984	177.045591	3.497921	905.897321	-54.943906	-9.542668	910.449535	114.536495	-67.613298	499.482418	-98.831300	-45.940369	500.474503	150.462385	
92	0.910000	-140.681556	1011.709607	19.914015	60.646551	982.738145	150.791480	78.652429	976.450000	-83.961900	-48.217752	505.642961	204.625036	-43.541130	495.245255	96.217870	85.953241	738.139930	141.352445	36.146442	632.410268	91.128156	37.741290	624.428051	175.552995	-59.938897	512.659387	-158.467669	-75.208214	486.303443	-39.129404	89.250593	757.209924	-70.194662	39.921288	644.501549	-33.103477	53.061846	639.738781	-109.307853	-155.339010	103.593438	223.317166	-132.512352	119.337884	130.760530	-31.230754	328.233791	190.036655	-88.530739	223.825467	144.593135	-89.413025	225.688072	226.171128	-146.844214	97.013849	-152.605578	-125.133153	120.547302	-61.045020	-41.888916	367.260832	-125.284474	-81.179009	252.373900	-85.281472	-76.488161	254.969425	-166.206228	-225.998435	57.621186	179.826662	4.982769	64.439611	165.565755	-8.959292	58.375089	238.456582	-220.229177	55.297332	-104.893771	8.614793	60.776992	-83.056500	-15.739975	55.445542	-171.413079	11.252693	1393.913488	16.645321	-76.536073	1445.233834	207.028806	-74.106681	1440.060786	-176.599492	-135.988684	108.780575	-106.825299	-143.925681	111.465661	177.038848	3.586387	905.894585	-54.982211	-9.413653	910.434555	114.507073	-67.573556	499.481415	-98.798537	-45.879441	500.444108	150.421453	
93	0.920000	-140.579865	1011.704494	19.916498	60.783691	982.723991	150.752436	78.735183	976.452292	-84.014620	-48.121148	505.636115	204.596808	-43.550546	495.161044	96.145204	86.070164	738.106935	141.302502	36.244927	632.394821	91.083635	37.842816	624.399464	175.509095	-59.894482	512.656538	-158.481487	-75.173290	486.304139	-39.056399	89.323478	757.201092	-70.239629	39.988107	644.483437	-33.142482	53.124223	639.732571	-109.346347	-155.332439	103.603568	223.310365	-132.501542	119.335587	130.754087	-31.176798	328.221489	190.014435	-88.476983	223.738425	144.534677	-89.375154	225.686457	226.158682	-146.838512	97.019160	-152.604301	-125.127497	120.550905	-61.045429	-41.862122	367.259087	-125.297868	-81.160364	252.375836	-85.288578	-76.472653	254.968922	-166.213659	-225.990350	57.628127	179.824964	4.985037	64.426663	165.566300	-8.955476	58.375063	238.454109	-220.227144	55.304034	-104.890344	8.616685	60.769994	-83.046083	-15.739085	55.443414	-171.413046	11.322004	1393.902455	16.640395	-76.436594	1445.201513	207.043146	-74.099556	1440.053175	-176.576867	-135.983005	108.785032	-106.824865	-143.916991	111.469577	177.032226	3.674468	905.892071	-55.020834	-9.286263	910.420152	114.477765	-67.533886	499.480338	-98.768943	-45.835847	500.398579	150.371006	
